<svg width="24" height="24" viewBox="0 0 24 24" fill="none" xmlns="http://www.w3.org/2000/svg">
  <path fill="#fff" fill-rule="evenodd" stroke="#1E293B" stroke-linejoin="round" d="M11.182 19.898c.147.136 1.49.136 1.636 0l8.047-7.166C20.988 12.618 21 12 21 12H3s.012.618.135.732l8.047 7.166ZM12.818 4.102c-.147-.136-1.49-.136-1.636 0l-8.047 7.166C3.012 11.382 3 12 3 12h18s-.012-.618-.135-.732l-8.047-7.166Z" clip-rule="evenodd"/>
  <path fill="#fff" fill-rule="evenodd" stroke="#1E293B" stroke-linejoin="round" d="M11.182 19.898c.147.136 1.49.136 1.636 0l8.047-7.166C20.988 12.618 21 12 21 12H3s.012.618.135.732l8.047 7.166ZM12.818 4.102c-.147-.136-1.49-.136-1.636 0l-8.047 7.166C3.012 11.382 3 12 3 12h18s-.012-.618-.135-.732l-8.047-7.166Z" clip-rule="evenodd"/>
</svg>
