<svg width="24" height="24" viewBox="0 0 24 24" fill="none" xmlns="http://www.w3.org/2000/svg">
<rect x="0.5" y="0.5" width="23" height="23" rx="3.5" fill="#F1F5F9" stroke="#1F2937"/>
<path d="M7.42246 17C6.04492 17 4 18 4 18V8C4 8 6.04492 7 7.42246 7C8.67765 7 11.2171 7.63771 11.5294 7.78571V18C11.5294 18 8.8 17 7.42246 17Z" fill="white"/>
<path d="M16.5775 17C17.9551 17 20 18 20 18V8C20 8 17.9551 7 16.5775 7C15.3224 7 12.7829 7.63771 12.4706 7.78571V18C12.4706 18 15.2 17 16.5775 17Z" fill="white"/>
<path d="M7.42246 17C6.04492 17 4 18 4 18V8C4 8 6.04492 7 7.42246 7C8.67765 7 11.2171 7.63771 11.5294 7.78571V18C11.5294 18 8.8 17 7.42246 17Z" stroke="#1E293B"/>
<path d="M16.5775 17C17.9551 17 20 18 20 18V8C20 8 17.9551 7 16.5775 7C15.3224 7 12.7829 7.63771 12.4706 7.78571V18C12.4706 18 15.2 17 16.5775 17Z" stroke="#1E293B"/>
</svg>
