<svg xmlns="http://www.w3.org/2000/svg" width="400" height="480" fill="none">
  <path fill="#fff" d="M0 0h400v480H0z"/>
  <path stroke="#000" d="M308 333.055 374.858 314m0 8.378-64.716 18.192M311 343.055l63.685-18.151m.105 8.348-61.648 17.318"/>
  <circle cx="181.75" cy="314.538" r="4.313" fill="#1A202C"/>
  <path stroke="#1A202C" stroke-width="2" d="M199.862 30.775v6.9l147.488 13.8m0 9.487L196.412 45.437v50.888L336.137 108.4m0 7.762-139.725-13.8-3.45 56.925 103.5 6.9m-7.762 8.625-98.325-8.625-6.038 50.025 97.463 12.075m0 6.9-98.325-11.212-13.8 100.912 206.137-27.6m0 11.213-207 24.15v25.012m0 0 135.413-36.225 12.075 43.125-144.038 40.246m-3.45-47.146L23.05 401.65v44.85L130 416.617m-17.25-43.43L99.812 339.55 23.05 369.737m0-8.625 75.038-28.462-11.213-32.775m6.9-1.725 12.075 31.05 53.475-19.838 22.425-143.175-68.138-.862m0-8.625h69.863l5.175-125.925M130 416.617l3.45 9.183m-3.45-9.183 42.262-11.809m0 0V412"/>
  <path fill="#4299E1" d="M198.138 70.45h18v18h-18z"/>
  <circle cx="180.025" cy="54.063" r="4.313" fill="#1A202C"/>
  <path fill="#1A202C" d="m133.89 51.35-.99-.63c-.27.06-.59.07-.78.07h-4.63c-.33 0-.89-.04-1.19-.08v1.41c.26-.01.73-.04 1.19-.04h4.66c-.14.86-.51 1.99-1.18 2.83-.81 1.01-1.93 1.88-3.92 2.34l1.09 1.2c1.79-.57 3.12-1.57 4.02-2.76.84-1.12 1.28-2.67 1.51-3.65.05-.21.12-.5.22-.69Zm10.99 1.67-.73-.67c-.16.04-.6.07-.82.07h-4.63c-.34 0-.73-.04-1.05-.08v1.28c.37-.03.71-.05 1.05-.05h4.33c-.24.41-.86 1.12-1.44 1.52l1 .69c.72-.54 1.65-1.81 2-2.37.06-.1.2-.29.29-.39Zm-3.43 1.04h-1.38c.04.22.08.47.08.72 0 1.26-.21 2.14-1.34 2.92-.3.21-.56.32-.82.43l1.07.84c2.34-1.28 2.34-3.03 2.39-4.91Zm8.39-3.89-.46 1.19c1.41.18 4.24.81 5.41 1.24l.51-1.24c-1.26-.44-4.14-1.03-5.46-1.19Zm-.45 2.69-.47 1.21c1.49.24 4.06.82 5.2 1.26l.49-1.25c-1.25-.43-3.79-.98-5.22-1.22Zm-.52 2.87-.5 1.25c1.6.25 4.77.94 6.12 1.49l.55-1.25c-1.38-.51-4.45-1.23-6.17-1.49Zm18.65-4.03-.99-.81c-.22.07-.55.11-.94.11h-5.54c-.35 0-.89-.05-1.16-.1v1.41c.21-.03.75-.08 1.16-.08h5.28c-.52.92-1.64 2.28-2.96 3.2l1 .92c1.55-1.14 3.03-2.94 3.81-4.23.08-.12.2-.26.34-.42Zm-5.27 4.8c.65.66 1.49 1.6 1.9 2.16l1.18-.94c-.48-.58-1.27-1.41-1.93-2.05a29.53 29.53 0 0 0-2.3-1.95l-1.05.86c.59.42 1.61 1.33 2.2 1.92ZM193.89 305.35l-.99-.63c-.27.06-.59.07-.78.07h-4.63c-.33 0-.89-.04-1.19-.08v1.41c.26-.01.73-.04 1.19-.04h4.66c-.14.86-.51 1.99-1.18 2.83-.81 1.01-1.93 1.88-3.92 2.34l1.09 1.2c1.79-.57 3.12-1.57 4.02-2.76.84-1.12 1.28-2.67 1.51-3.65.05-.21.12-.5.22-.69Zm10.99 1.67-.73-.67c-.16.04-.6.07-.82.07h-4.63c-.34 0-.73-.04-1.05-.08v1.28c.37-.03.71-.05 1.05-.05h4.33c-.24.41-.86 1.12-1.44 1.52l1 .69c.72-.54 1.65-1.81 2-2.37.06-.1.2-.29.29-.39Zm-3.43 1.04h-1.38c.04.22.08.47.08.72 0 1.26-.21 2.14-1.34 2.92-.3.21-.56.32-.82.43l1.07.84c2.34-1.28 2.34-3.03 2.39-4.91Zm8.39-3.89-.46 1.19c1.41.18 4.24.81 5.41 1.24l.51-1.24c-1.26-.44-4.14-1.03-5.46-1.19Zm-.45 2.69-.47 1.21c1.49.24 4.06.82 5.2 1.26l.49-1.25c-1.25-.43-3.79-.98-5.22-1.22Zm-.52 2.87-.5 1.25c1.6.25 4.77.94 6.12 1.49l.55-1.25c-1.38-.51-4.45-1.23-6.17-1.49Zm18.65-4.03-.99-.81c-.22.07-.55.11-.94.11h-5.54c-.35 0-.89-.05-1.16-.1v1.41c.21-.03.75-.08 1.16-.08h5.28c-.52.92-1.64 2.28-2.96 3.2l1 .92c1.55-1.14 3.03-2.94 3.81-4.23.08-.12.2-.26.34-.42Zm-5.27 4.8c.65.66 1.49 1.6 1.9 2.16l1.18-.94c-.48-.58-1.27-1.41-1.93-2.05a29.53 29.53 0 0 0-2.3-1.95l-1.05.86c.59.42 1.61 1.33 2.2 1.92ZM219.784 76.88v1.736h12.46V76.88h-12.46Zm7.182.7-1.694.392c1.064 3.85 2.814 6.748 6.02 8.246.28-.49.84-1.218 1.26-1.596-2.968-1.176-4.746-3.836-5.586-7.042Zm-1.932-4.466c-.042 3.794.21 9.114-5.53 11.676.49.364 1.008.966 1.274 1.428 6.006-2.898 6.034-8.834 6.104-13.104h-1.848Zm10.43.672V86.26h1.638V75.368h9.352v-1.582h-10.99Zm10.29 0v10.64c0 .238-.084.308-.308.308-.224.014-.952.028-1.596-.014a5.84 5.84 0 0 1 .532 1.554c1.106 0 1.834-.028 2.338-.294.518-.266.686-.7.686-1.526V73.786h-1.652Zm-8.19 3.822v1.372h7.756v-1.372h-7.756Zm1.246 4.648v1.372h5.096v-1.372h-5.096Zm1.764-3.486v4.172h1.526V78.77h-1.526Zm-2.492.938v4.76h1.4v-4.76h-1.4Zm5.138 0v4.522h1.442v-4.522h-1.442Zm-4.9-3.906c.392.616.756 1.456.868 2.016l1.4-.518c-.14-.56-.504-1.372-.924-1.946l-1.344.448Zm4.634-.532c-.168.63-.532 1.512-.826 2.1l1.288.378c.336-.518.784-1.316 1.204-2.086l-1.666-.392Zm12.894-1.778v10.962h1.778V73.492h-1.778Zm-4.76 3.024v9.59h1.722v-9.59h-1.722Zm9.716-.028v9.562h1.736v-9.562h-1.736Zm-8.876 6.944v1.736h9.646v-1.736h-9.646Zm24.934-7.91-1.134-.854c-.294.098-.84.168-1.456.168h-4.942c-.406 0-1.274-.042-1.652-.098v2.002c.308-.028 1.078-.098 1.652-.098h4.76c-.322.994-1.176 2.38-2.1 3.43-1.316 1.456-3.472 3.164-5.74 4.004l1.456 1.512c2.17-1.022 4.284-2.758 5.852-4.564 1.204-1.4 2.24-3.304 2.814-4.634.126-.294.378-.714.49-.868Zm-3.122 4.34-1.316 1.302c1.498 1.358 3.024 3.024 4.06 4.466l1.596-1.386c-.91-1.12-2.898-3.206-4.34-4.382Zm19.446-3.556-1.442-.896c-.308.112-.784.168-1.218.168h-3.99l-.644 1.596h4.718c-.224 1.036-1.036 2.716-1.988 3.808-1.232 1.386-2.786 2.604-5.642 3.472l1.652 1.47c2.632-1.036 4.312-2.324 5.642-3.948 1.274-1.554 2.072-3.416 2.45-4.676.112-.35.308-.728.462-.994Zm-4.564-2.226-2.058-.672a6.194 6.194 0 0 1-.63 1.47c-.686 1.204-1.918 3.01-4.368 4.508l1.568 1.162c2.016-1.372 3.682-3.346 4.634-5.04.154-.294.518-.938.854-1.428Zm8.652 4.438v2.212c.532-.042 1.47-.084 2.254-.084h7.532c.588 0 1.302.07 1.638.084v-2.212c-.378.028-.994.098-1.652.098h-7.518c-.728 0-1.736-.056-2.254-.098Zm21.154 6.174 1.176.966c.14-.098.308-.252.602-.406 1.582-.798 3.584-2.31 4.746-3.822l-1.064-1.554c-.952 1.358-2.324 2.464-3.472 2.954v-7.308c0-.63.098-1.19.098-1.218h-2.072c0 .028.098.574.098 1.204v8.162c0 .378-.042.756-.112 1.022Zm-6.482-.196 1.708 1.134a8.297 8.297 0 0 0 2.506-4.018c.364-1.414.406-4.368.406-6.034 0-.574.098-1.204.098-1.26h-2.058c.084.35.14.714.14 1.288 0 1.68-.014 4.34-.42 5.53-.378 1.204-1.134 2.492-2.38 3.36ZM108.925 390.851l.385 1.437 10.316-2.764-.385-1.437-10.316 2.764Zm6.101-1.014-1.315.701c1.735 2.951 3.827 4.962 6.813 5.491.123-.467.426-1.194.69-1.6-2.719-.316-4.781-2.124-6.188-4.592Zm-2.59-3.269c.807 3.151 2.196 7.5-1.988 10.894a4.527 4.527 0 0 1 1.371.9c4.33-3.732 3.036-8.653 2.147-12.203l-1.53.409Zm8.785-1.757 2.767 10.328 1.356-.364-2.416-9.018 7.743-2.074-.351-1.31-9.099 2.438Zm8.519-2.283 2.36 8.809c.053.198-.001.274-.186.324a13.5 13.5 0 0 1-1.325.342c.276.287.631.825.785 1.169.916-.245 1.513-.43 1.871-.762.37-.335.413-.732.229-1.416l-2.366-8.832-1.368.366Zm-5.933 4.982.304 1.135 6.422-1.72-.304-1.136-6.422 1.721Zm2.063 3.571.304 1.136 4.219-1.13-.304-1.136-4.219 1.13Zm.687-3.277.926 3.454 1.263-.339-.926-3.454-1.263.339Zm-1.855 1.329 1.056 3.941 1.159-.31-1.056-3.941-1.159.31Zm4.254-1.14 1.003 3.744 1.194-.32-1.003-3.743-1.194.319Zm-4.924-2.146c.462.423.949 1.037 1.166 1.476l1.044-.739a5.404 5.404 0 0 0-1.196-1.407l-1.014.67Zm3.719-1.469c.001.559-.105 1.37-.218 1.922l1.15.027c.164-.503.357-1.263.534-1.994l-1.466.045Zm10.281-4.332 2.432 9.075 1.472-.394-2.432-9.076-1.472.395Zm-3.27 3.559 2.127 7.94 1.426-.382-2.127-7.94-1.426.382Zm8.038-2.178 2.121 7.916 1.437-.385-2.121-7.917-1.437.386Zm-5.808 7.718.385 1.437 7.986-2.14-.385-1.437-7.986 2.14Zm14.942-12.713 1.199 4.474c.451 1.681.95 3.87.363 5.618.347.044 1.008.239 1.299.397.649-1.888.107-4.513-.387-6.356l-1.198-4.474-1.276.341Zm4.162 3.755-1.156.508c1.075 2.483 2.286 4.357 4.143 5.077a5.299 5.299 0 0 1 .612-1.381c-1.589-.506-2.732-2.175-3.599-4.204Zm-3.501-3.932.342 1.275 2.805-.751.705 2.631-2.805.751.341 1.275 4.057-1.087-1.388-5.181-4.057 1.087Zm-4.772 3.192.282 1.055 3.594-.963-.283-1.055-3.593.963Zm.469 1.75.279 1.044 3.593-.963-.279-1.043-3.593.962Zm-.192 1.928.289 1.078 3.964-1.063-.289-1.078-3.964 1.063Zm.665-5.123 1.401 5.228 1.112-.299-1.4-5.227-1.113.298Zm2.177 6.038c.347.417.747.98.925 1.367l.521-.375c-.187-.372-.583-.925-.951-1.323l-.495.331Zm-.753.389c.332.544.694 1.292.854 1.796l.591-.296a8.662 8.662 0 0 0-.882-1.763l-.563.263Zm-.79.298c.276.659.547 1.531.67 2.131l.613-.263c-.117-.578-.411-1.443-.699-2.099l-.584.231Zm-.955-.042c.23 1.044.361 2.09.093 2.807l.81.193c.31-.791.127-1.935-.101-3.066l-.802.066Zm-1.76-6.846 1.543 5.761 1.159-.311-1.242-4.636 3.28-.879-.301-1.124-4.439 1.189Zm4.893 4.354.053.197c.609 2.644.733 3.617.607 3.887-.05.138-.134.198-.273.235a7.379 7.379 0 0 1-.731.146c.243.258.472.694.582 1.012.42-.1.803-.203 1.037-.303.277-.124.45-.269.584-.603.193-.437.026-1.573-.595-4.4-.029-.154-.105-.482-.105-.482l-1.159.311ZM122.55 342.88v1.2h2.97v-1.2h-2.97Zm4.89-2.2v7.19c0 1.42.34 1.84 1.49 1.84h1.34c1.13 0 1.43-.74 1.54-2.66a3.53 3.53 0 0 1-1.14-.55c-.07 1.62-.14 2.03-.52 2.03h-1.04c-.36 0-.42-.08-.42-.64v-7.21h-1.25Zm-2.51-.01v9.12h1.25v-9.12h-1.25Zm5.82 1.5c-.8.68-1.97 1.54-3.06 2.1.17.26.4.68.49.95 1.13-.57 2.4-1.27 3.43-1.97l-.86-1.08Zm-8.55 5.25.53 1.23c.88-.36 1.97-.81 2.97-1.26l-.22-1.09c-1.2.43-2.47.88-3.28 1.12Zm11.85-5.93v8.21h1.26v-6.99h5.33v6.98h1.32v-8.2h-7.91Zm.6 6.16v1.24h6.81v-1.24h-6.81Z"/>
</svg>
