<svg xmlns="http://www.w3.org/2000/svg" width="375" height="476" fill="none">
  <mask id="a" width="375" height="476" x="0" y="0" maskUnits="userSpaceOnUse" style="mask-type:alpha">
    <path fill="#C4C4C4" d="M0 0h375v476H0z"/>
  </mask>
  <g stroke="#1A202C" mask="url(#a)">
    <path fill="#744210" stroke-linejoin="round" d="M-58.25-32.433a.5.5 0 0 0-.683.183l-111.5 193.124a.5.5 0 0 0 .183.683l603.638 348.51a.5.5 0 0 0 .683-.183l111.5-193.124a.5.5 0 0 0-.183-.683L-58.25-32.433Zm475.428 507.456-550.94-318.085L-44.945 3.103l551.478 318.659-89.355 153.261Z"/>
    <path fill="#B7791F" d="m22.947 42.758-88.65 153.544-9.965-5.754L12.98 37.004z"/>
    <path fill="#D69E2E" stroke-linejoin="round" d="M7.774 35.346a.5.5 0 0 0-.354-.056l-15.365 3.262a.5.5 0 0 0-.146.922l39.434 22.767a.5.5 0 0 0 .725-.588l-4.857-14.937a.5.5 0 0 0-.225-.279L7.774 35.346Z"/>
    <path fill="#B7791F" stroke-linejoin="round" d="M-3.817 55.423a.5.5 0 0 1-.226-.279L-8.9 40.207a.5.5 0 0 1 .725-.588L31.26 62.386a.5.5 0 0 1-.146.922L15.748 66.57a.5.5 0 0 1-.354-.055L-3.817 55.422Z"/>
    <path fill="#B7791F" d="M65.413 67.276-23.236 220.82l-9.966-5.754L55.447 61.522z"/>
    <path fill="#D69E2E" stroke-linejoin="round" d="M9.377 130.642a.497.497 0 0 0-.353-.056l-15.365 3.263a.5.5 0 0 0-.147.922l39.434 22.767a.5.5 0 0 0 .726-.588l-4.858-14.938a.501.501 0 0 0-.225-.278L9.377 130.642Z"/>
    <path fill="#B7791F" stroke-linejoin="round" d="M-2.214 150.72a.5.5 0 0 1-.226-.279l-4.857-14.938a.5.5 0 0 1 .726-.587l39.433 22.767a.5.5 0 0 1-.146.922l-15.365 3.262a.497.497 0 0 1-.354-.056L-2.214 150.72Z"/>
    <path fill="#D69E2E" stroke-linejoin="round" d="M-2.298 150.865a.497.497 0 0 0-.354-.056l-15.365 3.262a.5.5 0 0 0-.146.922l39.434 22.767a.5.5 0 0 0 .725-.588l-4.857-14.937a.5.5 0 0 0-.226-.279l-19.21-11.091Z"/>
    <path fill="#B7791F" stroke-linejoin="round" d="M-13.89 170.942a.501.501 0 0 1-.225-.278l-4.857-14.938a.5.5 0 0 1 .725-.588l39.434 22.767a.501.501 0 0 1-.146.922L5.676 182.09a.507.507 0 0 1-.354-.056l-19.212-11.092Z"/>
    <path fill="#D69E2E" stroke-linejoin="round" d="M-13.973 171.087a.497.497 0 0 0-.354-.056l-15.365 3.262a.5.5 0 0 0-.146.922l39.433 22.767a.5.5 0 0 0 .726-.587l-4.858-14.938a.498.498 0 0 0-.225-.278l-19.211-11.092Z"/>
    <path fill="#B7791F" stroke-linejoin="round" d="M-25.565 191.164a.502.502 0 0 1-.226-.278l-4.857-14.938a.5.5 0 0 1 .726-.588L9.51 198.127a.501.501 0 0 1-.146.923L-6 202.312a.497.497 0 0 1-.354-.056l-19.211-11.092Z"/>
    <path fill="#D69E2E" stroke-linejoin="round" d="M-25.649 191.309a.507.507 0 0 0-.354-.056l-15.365 3.263a.5.5 0 0 0-.146.922l39.434 22.767a.5.5 0 0 0 .725-.588l-4.857-14.938a.502.502 0 0 0-.225-.278l-19.212-11.092ZM50.241 59.864a.5.5 0 0 0-.353-.056L34.522 63.07a.5.5 0 0 0-.146.922L73.81 86.76a.5.5 0 0 0 .725-.587l-4.857-14.938a.5.5 0 0 0-.225-.278L50.24 59.864Z"/>
    <path fill="#B7791F" stroke-linejoin="round" d="M38.65 79.941a.5.5 0 0 1-.226-.278l-4.857-14.938a.5.5 0 0 1 .725-.588l39.434 22.767a.5.5 0 0 1-.146.922L58.215 91.09a.5.5 0 0 1-.354-.056L38.65 79.94Z"/>
    <path fill="#B7791F" d="M107.88 91.794 19.233 245.338l-9.966-5.754L97.915 86.04z"/>
    <path fill="#D69E2E" stroke-linejoin="round" d="M51.844 155.161a.503.503 0 0 0-.353-.057l-15.365 3.263a.5.5 0 0 0-.147.922l39.434 22.767a.501.501 0 0 0 .725-.588l-4.857-14.937a.5.5 0 0 0-.225-.279l-19.212-11.091Z"/>
    <path fill="#B7791F" stroke-linejoin="round" d="M40.253 175.238a.5.5 0 0 1-.226-.279l-4.857-14.937a.5.5 0 0 1 .726-.588l39.433 22.767a.5.5 0 0 1-.146.922l-15.365 3.263a.507.507 0 0 1-.354-.056l-19.211-11.092Z"/>
    <path fill="#D69E2E" stroke-linejoin="round" d="M40.169 175.383a.497.497 0 0 0-.354-.056l-15.365 3.262a.5.5 0 0 0-.146.922l39.434 22.767a.5.5 0 0 0 .725-.587l-4.857-14.938a.498.498 0 0 0-.226-.278L40.17 175.383Z"/>
    <path fill="#B7791F" stroke-linejoin="round" d="M28.577 195.46a.499.499 0 0 1-.225-.278l-4.857-14.938a.5.5 0 0 1 .725-.588l39.434 22.768a.499.499 0 0 1-.146.922l-15.365 3.262a.497.497 0 0 1-.354-.056L28.577 195.46Z"/>
    <path fill="#D69E2E" stroke-linejoin="round" d="M28.494 195.605a.502.502 0 0 0-.354-.056l-15.365 3.263a.5.5 0 0 0-.146.922l39.433 22.767a.5.5 0 0 0 .726-.588l-4.858-14.938a.501.501 0 0 0-.225-.278l-19.211-11.092Z"/>
    <path fill="#B7791F" stroke-linejoin="round" d="M16.902 215.682a.495.495 0 0 1-.226-.278l-4.857-14.938a.5.5 0 0 1 .726-.587l39.433 22.767a.5.5 0 0 1-.146.922l-15.365 3.262a.497.497 0 0 1-.354-.056l-19.211-11.092Z"/>
    <path fill="#D69E2E" stroke-linejoin="round" d="M16.818 215.828a.497.497 0 0 0-.354-.056L1.1 219.034a.5.5 0 0 0-.146.922l39.434 22.767a.5.5 0 0 0 .725-.588l-4.857-14.937a.5.5 0 0 0-.225-.279l-19.212-11.091Z"/>
    <path fill="#B7791F" stroke-linejoin="round" d="M5.227 235.905a.502.502 0 0 1-.226-.278L.144 220.689a.5.5 0 0 1 .725-.588l39.434 22.767a.501.501 0 0 1-.146.922l-15.365 3.263a.507.507 0 0 1-.354-.056L5.227 235.905Z"/>
    <path fill="#D69E2E" stroke-linejoin="round" d="M92.708 84.382a.5.5 0 0 0-.354-.056L76.99 87.59a.5.5 0 0 0-.146.922l39.434 22.767a.502.502 0 0 0 .565-.045c.16-.13.224-.346.16-.543l-4.857-14.938a.498.498 0 0 0-.225-.278L92.708 84.382Z"/>
    <path fill="#B7791F" stroke-linejoin="round" d="M81.117 104.459a.498.498 0 0 1-.226-.278l-4.857-14.938a.5.5 0 0 1 .725-.587l39.434 22.767a.5.5 0 0 1-.146.922l-15.365 3.262a.497.497 0 0 1-.354-.056l-19.211-11.092Z"/>
    <path fill="#B7791F" d="M150.348 116.312 61.699 269.857l-9.966-5.754 88.649-153.545z"/>
    <path fill="#D69E2E" stroke-linejoin="round" d="M94.311 179.679a.497.497 0 0 0-.353-.056l-15.365 3.262a.5.5 0 0 0-.147.922l39.434 22.767a.5.5 0 0 0 .726-.587l-4.858-14.938a.496.496 0 0 0-.225-.278l-19.212-11.092Z"/>
    <path fill="#B7791F" stroke-linejoin="round" d="M82.72 199.756a.499.499 0 0 1-.226-.278l-4.857-14.938a.5.5 0 0 1 .726-.587l39.433 22.767a.498.498 0 0 1-.146.922l-15.365 3.262a.497.497 0 0 1-.354-.056L82.72 199.756Z"/>
    <path fill="#D69E2E" stroke-linejoin="round" d="M82.636 199.901a.508.508 0 0 0-.354-.056l-15.365 3.263a.5.5 0 0 0-.146.922l39.434 22.767a.499.499 0 0 0 .564-.045c.161-.13.225-.346.161-.543l-4.857-14.938a.501.501 0 0 0-.226-.278l-19.21-11.092Z"/>
    <path fill="#B7791F" stroke-linejoin="round" d="M71.044 219.979a.5.5 0 0 1-.225-.279l-4.857-14.937a.502.502 0 0 1 .725-.588l39.434 22.767a.5.5 0 0 1-.146.922l-15.365 3.262a.497.497 0 0 1-.354-.056l-19.212-11.091Z"/>
    <path fill="#D69E2E" stroke-linejoin="round" d="M70.96 220.124a.497.497 0 0 0-.353-.056l-15.365 3.262a.5.5 0 0 0-.146.922l39.433 22.767a.5.5 0 0 0 .726-.588l-4.858-14.937a.5.5 0 0 0-.225-.279l-19.211-11.091Z"/>
    <path fill="#B7791F" stroke-linejoin="round" d="M59.37 240.201a.5.5 0 0 1-.226-.279l-4.858-14.937a.5.5 0 0 1 .726-.588l39.433 22.767a.5.5 0 0 1-.146.922l-15.365 3.263a.507.507 0 0 1-.354-.056l-19.21-11.092Z"/>
    <path fill="#D69E2E" stroke-linejoin="round" d="M59.285 240.346a.497.497 0 0 0-.353-.056l-15.366 3.262a.5.5 0 0 0-.146.922l39.434 22.768a.501.501 0 0 0 .725-.588l-4.857-14.938a.501.501 0 0 0-.225-.278l-19.212-11.092Z"/>
    <path fill="#B7791F" stroke-linejoin="round" d="M47.694 260.423a.498.498 0 0 1-.226-.278l-4.857-14.938a.5.5 0 0 1 .725-.587l39.434 22.767a.499.499 0 0 1-.146.922l-15.365 3.262a.497.497 0 0 1-.354-.056l-19.211-11.092Z"/>
    <path fill="#D69E2E" stroke-linejoin="round" d="M135.175 108.901a.497.497 0 0 0-.354-.056l-15.365 3.262a.501.501 0 0 0-.146.922l39.434 22.767a.5.5 0 0 0 .725-.588l-4.857-14.937a.499.499 0 0 0-.225-.279l-19.212-11.091Z"/>
    <path fill="#B7791F" stroke-linejoin="round" d="M123.584 128.978a.5.5 0 0 1-.226-.279l-4.857-14.937a.5.5 0 0 1 .725-.588l39.434 22.767a.502.502 0 0 1-.146.922l-15.365 3.263a.508.508 0 0 1-.354-.056l-19.211-11.092Z"/>
    <path fill="#B7791F" d="m192.815 140.831-88.649 153.545-9.966-5.754 88.649-153.545z"/>
    <path fill="#D69E2E" stroke-linejoin="round" d="M136.778 204.197a.505.505 0 0 0-.353-.056l-15.365 3.263a.498.498 0 0 0-.147.922l39.434 22.767a.5.5 0 0 0 .565-.045c.161-.13.225-.346.161-.543l-4.858-14.938a.5.5 0 0 0-.225-.278l-19.212-11.092Z"/>
    <path fill="#B7791F" stroke-linejoin="round" d="M125.187 224.275a.504.504 0 0 1-.226-.279l-4.857-14.938a.5.5 0 0 1 .726-.587l39.433 22.767a.498.498 0 0 1-.146.922l-15.365 3.262a.497.497 0 0 1-.354-.056l-19.211-11.091Z"/>
    <path fill="#D69E2E" stroke-linejoin="round" d="M125.103 224.42a.497.497 0 0 0-.354-.056l-15.365 3.262a.501.501 0 0 0-.146.922l39.434 22.767a.499.499 0 0 0 .564-.044c.161-.131.225-.347.161-.543l-4.857-14.938a.5.5 0 0 0-.226-.279l-19.211-11.091Z"/>
    <path fill="#B7791F" stroke-linejoin="round" d="M113.511 244.497a.5.5 0 0 1-.225-.278l-4.857-14.938a.5.5 0 0 1 .725-.588l39.434 22.767a.501.501 0 0 1-.146.922l-15.365 3.263a.508.508 0 0 1-.354-.056l-19.212-11.092Z"/>
    <path fill="#D69E2E" stroke-linejoin="round" d="M113.428 244.642a.497.497 0 0 0-.354-.056l-15.365 3.262a.5.5 0 0 0-.147.922l39.434 22.767a.5.5 0 0 0 .565-.044c.161-.13.225-.346.161-.543l-4.858-14.938a.496.496 0 0 0-.225-.278l-19.211-11.092Z"/>
    <path fill="#B7791F" stroke-linejoin="round" d="M101.836 264.719a.5.5 0 0 1-.225-.278l-4.858-14.938a.5.5 0 0 1 .726-.588l39.433 22.767a.5.5 0 0 1-.146.923l-15.365 3.262a.497.497 0 0 1-.354-.056l-19.211-11.092Z"/>
    <path fill="#D69E2E" stroke-linejoin="round" d="M101.752 264.864a.508.508 0 0 0-.354-.056l-15.365 3.263a.5.5 0 0 0-.146.922l39.434 22.767a.5.5 0 0 0 .565-.045c.16-.13.224-.346.16-.543l-4.857-14.938a.5.5 0 0 0-.225-.278l-19.212-11.092Z"/>
    <path fill="#B7791F" stroke-linejoin="round" d="M90.16 284.942a.5.5 0 0 1-.225-.279l-4.857-14.937a.502.502 0 0 1 .725-.588l39.434 22.767a.5.5 0 0 1-.146.922l-15.365 3.262a.497.497 0 0 1-.354-.056l-19.211-11.091Z"/>
    <path fill="#D69E2E" stroke-linejoin="round" d="M177.642 133.419a.497.497 0 0 0-.354-.056l-15.365 3.262a.5.5 0 0 0-.146.922l39.434 22.767a.5.5 0 0 0 .565-.044c.16-.13.224-.346.16-.543l-4.857-14.938a.496.496 0 0 0-.225-.278l-19.212-11.092Z"/>
    <path fill="#B7791F" stroke-linejoin="round" d="M166.051 153.496a.501.501 0 0 1-.226-.278l-4.857-14.938a.5.5 0 0 1 .725-.588l39.434 22.767a.502.502 0 0 1-.146.923l-15.365 3.262a.497.497 0 0 1-.354-.056l-19.211-11.092Z"/>
    <path fill="#B7791F" d="m235.282 165.349-88.649 153.545-9.966-5.754 88.649-153.545z"/>
    <path fill="#D69E2E" stroke-linejoin="round" d="M179.245 228.716a.495.495 0 0 0-.353-.056l-15.365 3.262a.498.498 0 0 0-.147.922l39.434 22.767a.5.5 0 0 0 .565-.044c.161-.131.225-.347.161-.544l-4.858-14.937a.499.499 0 0 0-.225-.279l-19.212-11.091Z"/>
    <path fill="#B7791F" stroke-linejoin="round" d="M167.654 248.793a.506.506 0 0 1-.226-.278l-4.857-14.938a.5.5 0 0 1 .726-.588l39.433 22.767a.498.498 0 0 1-.146.922l-15.365 3.263a.508.508 0 0 1-.354-.056l-19.211-11.092Z"/>
    <path fill="#D69E2E" stroke-linejoin="round" d="M167.57 248.938a.497.497 0 0 0-.354-.056l-15.365 3.262a.5.5 0 0 0-.146.922l39.434 22.767a.499.499 0 0 0 .564-.044c.161-.13.225-.346.161-.543l-4.857-14.938a.498.498 0 0 0-.226-.278l-19.211-11.092Z"/>
    <path fill="#B7791F" stroke-linejoin="round" d="M155.978 269.015a.496.496 0 0 1-.225-.278l-4.857-14.938a.5.5 0 0 1 .725-.587l39.434 22.767a.5.5 0 0 1-.146.922l-15.365 3.262a.497.497 0 0 1-.354-.056l-19.212-11.092Z"/>
    <path fill="#D69E2E" stroke-linejoin="round" d="M155.895 269.16a.508.508 0 0 0-.354-.056l-15.365 3.263a.498.498 0 0 0-.146.922l39.433 22.767a.5.5 0 0 0 .726-.588l-4.858-14.938a.5.5 0 0 0-.225-.278l-19.211-11.092Z"/>
    <path fill="#B7791F" stroke-linejoin="round" d="M144.303 289.238a.499.499 0 0 1-.225-.279l-4.858-14.938a.5.5 0 0 1 .726-.587l39.433 22.767a.498.498 0 0 1-.146.922l-15.365 3.262a.497.497 0 0 1-.354-.056l-19.211-11.091Z"/>
    <path fill="#D69E2E" stroke-linejoin="round" d="M144.219 289.383a.497.497 0 0 0-.354-.056l-15.365 3.262a.501.501 0 0 0-.146.922l39.434 22.767a.5.5 0 0 0 .725-.587l-4.857-14.938a.499.499 0 0 0-.225-.279l-19.212-11.091Z"/>
    <path fill="#B7791F" stroke-linejoin="round" d="M132.628 309.46a.501.501 0 0 1-.226-.278l-4.857-14.938a.5.5 0 0 1 .725-.588l39.434 22.767a.5.5 0 0 1-.146.922l-15.365 3.263a.508.508 0 0 1-.354-.056l-19.211-11.092Z"/>
    <path fill="#D69E2E" stroke-linejoin="round" d="M220.109 157.937a.508.508 0 0 0-.354-.056l-15.365 3.263a.501.501 0 0 0-.146.922l39.434 22.767a.5.5 0 0 0 .725-.588l-4.857-14.938a.5.5 0 0 0-.225-.278l-19.212-11.092Z"/>
    <path fill="#B7791F" stroke-linejoin="round" d="M208.518 178.014a.495.495 0 0 1-.226-.278l-4.857-14.938a.5.5 0 0 1 .725-.587l39.434 22.767a.5.5 0 0 1-.146.922l-15.365 3.262a.497.497 0 0 1-.354-.056l-19.211-11.092Z"/>
    <path fill="#B7791F" d="M277.749 189.867 189.1 343.412l-9.966-5.754 88.649-153.545z"/>
    <path fill="#D69E2E" stroke-linejoin="round" d="M221.712 253.234a.495.495 0 0 0-.353-.056l-15.366 3.262a.5.5 0 0 0-.146.922l39.434 22.767a.5.5 0 0 0 .725-.587l-4.857-14.938a.493.493 0 0 0-.225-.278l-19.212-11.092Z"/>
    <path fill="#B7791F" stroke-linejoin="round" d="M210.121 273.311a.501.501 0 0 1-.226-.278l-4.857-14.938a.5.5 0 0 1 .725-.588l39.434 22.767a.502.502 0 0 1-.146.923l-15.365 3.262a.497.497 0 0 1-.354-.056l-19.211-11.092Z"/>
    <path fill="#D69E2E" stroke-linejoin="round" d="M210.037 273.456a.508.508 0 0 0-.354-.056l-15.365 3.263a.5.5 0 0 0-.146.922l39.434 22.767a.499.499 0 0 0 .725-.588l-4.857-14.938a.501.501 0 0 0-.226-.278l-19.211-11.092Z"/>
    <path fill="#B7791F" stroke-linejoin="round" d="M198.445 293.534a.499.499 0 0 1-.225-.279l-4.857-14.938a.5.5 0 0 1 .725-.587l39.434 22.767a.5.5 0 0 1-.146.922l-15.365 3.262a.497.497 0 0 1-.354-.056l-19.212-11.091Z"/>
    <path fill="#D69E2E" stroke-linejoin="round" d="M198.362 293.679a.497.497 0 0 0-.354-.056l-15.365 3.262a.498.498 0 0 0-.146.922l39.433 22.767a.5.5 0 0 0 .565-.044c.161-.131.225-.347.161-.544l-4.858-14.937a.499.499 0 0 0-.225-.279l-19.211-11.091Z"/>
    <path fill="#B7791F" stroke-linejoin="round" d="M186.77 313.756a.499.499 0 0 1-.225-.279l-4.858-14.937a.5.5 0 0 1 .726-.588l39.433 22.767a.498.498 0 0 1-.146.922l-15.365 3.263a.503.503 0 0 1-.354-.057l-19.211-11.091Z"/>
    <path fill="#D69E2E" stroke-linejoin="round" d="M186.686 313.901a.497.497 0 0 0-.354-.056l-15.365 3.262a.5.5 0 0 0-.146.922l39.434 22.767a.5.5 0 0 0 .565-.044c.16-.13.224-.346.16-.543l-4.857-14.938a.496.496 0 0 0-.225-.278l-19.212-11.092Z"/>
    <path fill="#B7791F" stroke-linejoin="round" d="M175.095 333.978a.501.501 0 0 1-.226-.278l-4.857-14.938a.5.5 0 0 1 .725-.588l39.434 22.767a.502.502 0 0 1-.146.923l-15.365 3.262a.497.497 0 0 1-.354-.056l-19.211-11.092Z"/>
    <path fill="#D69E2E" stroke-linejoin="round" d="M262.576 182.456a.497.497 0 0 0-.354-.056l-15.365 3.262a.501.501 0 0 0-.146.922l39.434 22.767a.5.5 0 0 0 .565-.044c.16-.131.224-.347.16-.544l-4.857-14.937a.499.499 0 0 0-.225-.279l-19.212-11.091Z"/>
    <path fill="#B7791F" stroke-linejoin="round" d="M250.985 202.533a.5.5 0 0 1-.226-.279l-4.857-14.937a.502.502 0 0 1 .725-.588l39.434 22.767a.502.502 0 0 1-.146.922l-15.365 3.263a.503.503 0 0 1-.354-.057l-19.211-11.091Z"/>
    <path fill="#B7791F" d="m320.216 214.386-88.649 153.545-9.966-5.754 88.649-153.545z"/>
    <path fill="#D69E2E" stroke-linejoin="round" d="M264.179 277.752a.497.497 0 0 0-.354-.056l-15.365 3.263a.501.501 0 0 0-.146.922l39.434 22.767a.5.5 0 0 0 .725-.588l-4.857-14.938a.5.5 0 0 0-.225-.278l-19.212-11.092Z"/>
    <path fill="#B7791F" stroke-linejoin="round" d="M252.588 297.83a.5.5 0 0 1-.226-.279l-4.857-14.938a.5.5 0 0 1 .725-.587l39.434 22.767a.5.5 0 0 1-.146.922l-15.365 3.262a.497.497 0 0 1-.354-.056l-19.211-11.091Z"/>
    <path fill="#D69E2E" stroke-linejoin="round" d="M252.504 297.975a.497.497 0 0 0-.354-.056l-15.365 3.262a.498.498 0 0 0-.146.922l39.433 22.767a.5.5 0 0 0 .565-.044c.161-.131.225-.347.161-.544l-4.857-14.937a.504.504 0 0 0-.226-.279l-19.211-11.091Z"/>
    <path fill="#B7791F" stroke-linejoin="round" d="M240.912 318.052a.5.5 0 0 1-.225-.278l-4.857-14.938a.499.499 0 0 1 .725-.588l39.434 22.767a.502.502 0 0 1-.146.922l-15.366 3.263a.506.506 0 0 1-.353-.056l-19.212-11.092Z"/>
    <path fill="#D69E2E" stroke-linejoin="round" d="M240.829 318.197a.497.497 0 0 0-.354-.056l-15.365 3.262a.5.5 0 0 0-.147.922l39.434 22.767a.5.5 0 0 0 .726-.587l-4.858-14.938a.496.496 0 0 0-.225-.278l-19.211-11.092Z"/>
    <path fill="#B7791F" stroke-linejoin="round" d="M229.237 338.274a.506.506 0 0 1-.226-.278l-4.857-14.938a.5.5 0 0 1 .726-.588l39.433 22.767a.5.5 0 0 1-.146.922l-15.365 3.263a.497.497 0 0 1-.354-.056l-19.211-11.092Z"/>
    <path fill="#D69E2E" stroke-linejoin="round" d="M229.153 338.419a.508.508 0 0 0-.354-.056l-15.365 3.263a.501.501 0 0 0-.146.922l39.434 22.767a.499.499 0 0 0 .564-.045c.161-.13.225-.346.161-.543l-4.857-14.938a.501.501 0 0 0-.226-.278l-19.211-11.092Z"/>
    <path fill="#B7791F" stroke-linejoin="round" d="M217.562 358.497a.5.5 0 0 1-.226-.279l-4.857-14.938a.5.5 0 0 1 .725-.587l39.434 22.767a.5.5 0 0 1-.146.922l-15.365 3.262a.497.497 0 0 1-.354-.056l-19.211-11.091Z"/>
    <path fill="#D69E2E" stroke-linejoin="round" d="M305.043 206.974a.497.497 0 0 0-.354-.056l-15.365 3.262a.5.5 0 0 0-.146.922l39.434 22.767a.498.498 0 0 0 .725-.587l-4.857-14.938a.495.495 0 0 0-.226-.278l-19.211-11.092Z"/>
    <path fill="#B7791F" stroke-linejoin="round" d="M293.452 227.051a.501.501 0 0 1-.226-.278l-4.857-14.938a.5.5 0 0 1 .725-.588l39.434 22.767a.501.501 0 0 1-.146.922l-15.365 3.263a.502.502 0 0 1-.354-.056l-19.211-11.092Z"/>
    <path fill="#B7791F" d="m362.683 238.904-88.649 153.545-9.966-5.754 88.649-153.545z"/>
    <path fill="#D69E2E" stroke-linejoin="round" d="M306.646 302.271a.503.503 0 0 0-.354-.057l-15.365 3.263a.501.501 0 0 0-.146.922l39.434 22.767a.5.5 0 0 0 .725-.588l-4.857-14.937a.499.499 0 0 0-.225-.279l-19.212-11.091Z"/>
    <path fill="#B7791F" stroke-linejoin="round" d="M295.055 322.348a.5.5 0 0 1-.226-.279l-4.857-14.937a.5.5 0 0 1 .725-.588l39.434 22.767a.502.502 0 0 1-.146.922l-15.365 3.263a.508.508 0 0 1-.354-.056l-19.211-11.092Z"/>
    <path fill="#D69E2E" stroke-linejoin="round" d="M294.971 322.493a.497.497 0 0 0-.354-.056l-15.365 3.262a.498.498 0 0 0-.146.922l39.433 22.767a.5.5 0 0 0 .726-.587l-4.857-14.938a.5.5 0 0 0-.226-.279l-19.211-11.091Z"/>
    <path fill="#B7791F" stroke-linejoin="round" d="M283.379 342.57a.5.5 0 0 1-.225-.278l-4.857-14.938a.5.5 0 0 1 .725-.588l39.434 22.767a.501.501 0 0 1-.146.922l-15.365 3.263a.508.508 0 0 1-.354-.056l-19.212-11.092Z"/>
    <path fill="#D69E2E" stroke-linejoin="round" d="M283.296 342.715a.498.498 0 0 0-.354-.056l-15.365 3.263a.498.498 0 0 0-.147.922l39.434 22.767a.502.502 0 0 0 .565-.045c.161-.13.225-.346.161-.543l-4.858-14.938a.5.5 0 0 0-.225-.278l-19.211-11.092Z"/>
    <path fill="#B7791F" stroke-linejoin="round" d="M271.704 362.792a.499.499 0 0 1-.226-.278l-4.857-14.938a.5.5 0 0 1 .726-.587l39.433 22.767a.5.5 0 0 1-.146.922l-15.365 3.262a.497.497 0 0 1-.354-.056l-19.211-11.092Z"/>
    <path fill="#D69E2E" stroke-linejoin="round" d="M271.62 362.938a.497.497 0 0 0-.354-.056l-15.365 3.262a.501.501 0 0 0-.146.922l39.434 22.767a.499.499 0 0 0 .725-.588l-4.857-14.937a.5.5 0 0 0-.226-.279l-19.211-11.091Z"/>
    <path fill="#B7791F" stroke-linejoin="round" d="M260.028 383.015a.499.499 0 0 1-.225-.279l-4.857-14.937a.5.5 0 0 1 .725-.588l39.434 22.767a.502.502 0 0 1-.146.922l-15.365 3.263a.508.508 0 0 1-.354-.056l-19.212-11.092Z"/>
    <path fill="#D69E2E" stroke-linejoin="round" d="M347.51 231.492a.497.497 0 0 0-.354-.056l-15.365 3.262a.502.502 0 0 0-.146.923l39.434 22.767a.5.5 0 0 0 .725-.588l-4.857-14.938a.5.5 0 0 0-.225-.278l-19.212-11.092Z"/>
    <path fill="#B7791F" stroke-linejoin="round" d="M335.919 251.569a.498.498 0 0 1-.226-.278l-4.857-14.938a.5.5 0 0 1 .725-.587l39.434 22.767a.5.5 0 0 1-.146.922l-15.365 3.262a.497.497 0 0 1-.354-.056l-19.211-11.092Z"/>
    <path fill="#B7791F" d="m405.15 263.422-88.649 153.545-9.966-5.754 88.649-153.545z"/>
    <path fill="#D69E2E" stroke-linejoin="round" d="M349.113 326.789a.495.495 0 0 0-.353-.056l-15.366 3.262a.501.501 0 0 0-.146.922l39.434 22.767a.5.5 0 0 0 .725-.587l-4.857-14.938a.499.499 0 0 0-.225-.279l-19.212-11.091Z"/>
    <path fill="#B7791F" stroke-linejoin="round" d="M337.522 346.866a.501.501 0 0 1-.226-.278l-4.857-14.938a.5.5 0 0 1 .725-.588l39.434 22.767a.502.502 0 0 1-.146.922l-15.365 3.263a.508.508 0 0 1-.354-.056l-19.211-11.092Z"/>
    <path fill="#D69E2E" stroke-linejoin="round" d="M337.438 347.011a.497.497 0 0 0-.354-.056l-15.365 3.262a.5.5 0 0 0-.146.923l39.434 22.767a.5.5 0 0 0 .725-.588l-4.857-14.938a.501.501 0 0 0-.226-.278l-19.211-11.092Z"/>
    <path fill="#B7791F" stroke-linejoin="round" d="M325.846 367.088a.496.496 0 0 1-.225-.278l-4.857-14.938a.5.5 0 0 1 .725-.587l39.434 22.767a.5.5 0 0 1-.146.922l-15.365 3.262a.497.497 0 0 1-.354-.056l-19.212-11.092Z"/>
    <path fill="#D69E2E" stroke-linejoin="round" d="M325.763 367.234a.503.503 0 0 0-.354-.057l-15.365 3.263a.498.498 0 0 0-.147.922l39.434 22.767a.502.502 0 0 0 .726-.588l-4.858-14.937a.499.499 0 0 0-.225-.279l-19.211-11.091Z"/>
    <path fill="#B7791F" stroke-linejoin="round" d="M314.171 387.311a.499.499 0 0 1-.225-.279l-4.858-14.937a.502.502 0 0 1 .726-.588l39.433 22.767a.498.498 0 0 1-.146.922l-15.365 3.262a.497.497 0 0 1-.354-.056l-19.211-11.091Z"/>
    <path fill="#D69E2E" stroke-linejoin="round" d="M314.087 387.456a.497.497 0 0 0-.354-.056l-15.365 3.262a.5.5 0 0 0-.146.922l39.434 22.767a.498.498 0 0 0 .564-.044c.161-.13.225-.346.161-.543l-4.857-14.938a.498.498 0 0 0-.226-.278l-19.211-11.092Z"/>
    <path fill="#B7791F" stroke-linejoin="round" d="M302.495 407.533a.5.5 0 0 1-.225-.278l-4.857-14.938a.5.5 0 0 1 .725-.588l39.434 22.767a.502.502 0 0 1-.146.923l-15.365 3.262a.497.497 0 0 1-.354-.056l-19.212-11.092Z"/>
    <path fill="#D69E2E" stroke-linejoin="round" d="M389.977 256.011a.503.503 0 0 0-.354-.057l-15.365 3.263a.501.501 0 0 0-.146.922l39.434 22.767a.5.5 0 0 0 .725-.588l-4.857-14.937a.499.499 0 0 0-.225-.279l-19.212-11.091Z"/>
    <path fill="#B7791F" stroke-linejoin="round" d="M378.386 276.088a.5.5 0 0 1-.226-.279l-4.857-14.937a.502.502 0 0 1 .725-.588l39.434 22.767a.5.5 0 0 1-.146.922l-15.365 3.262a.497.497 0 0 1-.354-.056l-19.211-11.091Z"/>
    <path fill="#B7791F" d="m447.617 287.941-88.649 153.545-9.966-5.754 88.649-153.545z"/>
    <path fill="#D69E2E" stroke-linejoin="round" d="M391.58 351.307a.508.508 0 0 0-.354-.056l-15.365 3.263a.501.501 0 0 0-.146.922l39.434 22.767a.5.5 0 0 0 .725-.588l-4.857-14.938a.5.5 0 0 0-.225-.278l-19.212-11.092Z"/>
    <path fill="#B7791F" stroke-linejoin="round" d="M379.989 371.384a.495.495 0 0 1-.226-.278l-4.857-14.938a.5.5 0 0 1 .725-.587l39.434 22.767a.5.5 0 0 1-.146.922l-15.365 3.262a.497.497 0 0 1-.354-.056l-19.211-11.092Z"/>
    <path fill="#D69E2E" stroke-linejoin="round" d="M379.905 371.529a.508.508 0 0 0-.354-.056l-15.365 3.263a.498.498 0 0 0-.146.922l39.433 22.767a.5.5 0 0 0 .726-.588l-4.857-14.938a.506.506 0 0 0-.226-.278l-19.211-11.092Z"/>
    <path fill="#B7791F" stroke-linejoin="round" d="M368.313 391.607a.499.499 0 0 1-.225-.279l-4.857-14.938a.5.5 0 0 1 .725-.587l39.434 22.767a.5.5 0 0 1-.146.922l-15.366 3.262a.495.495 0 0 1-.353-.056l-19.212-11.091Z"/>
    <path fill="#D69E2E" stroke-linejoin="round" d="M368.229 391.752a.495.495 0 0 0-.353-.056l-15.365 3.262a.498.498 0 0 0-.147.922l39.434 22.767a.5.5 0 0 0 .726-.587l-4.858-14.938a.493.493 0 0 0-.225-.278l-19.212-11.092Z"/>
    <path fill="#B7791F" stroke-linejoin="round" d="M356.638 411.829a.506.506 0 0 1-.226-.278l-4.857-14.938a.5.5 0 0 1 .726-.588l39.433 22.767a.5.5 0 0 1-.146.922l-15.365 3.263a.508.508 0 0 1-.354-.056l-19.211-11.092Z"/>
    <path fill="#D69E2E" stroke-linejoin="round" d="M356.554 411.974a.508.508 0 0 0-.354-.056l-15.365 3.263a.501.501 0 0 0-.146.922l39.434 22.767a.499.499 0 0 0 .725-.588l-4.857-14.938a.501.501 0 0 0-.226-.278l-19.211-11.092Z"/>
    <path fill="#B7791F" stroke-linejoin="round" d="M344.962 432.051a.493.493 0 0 1-.225-.278l-4.857-14.938a.5.5 0 0 1 .725-.587l39.434 22.767a.5.5 0 0 1-.146.922l-15.365 3.262a.497.497 0 0 1-.354-.056l-19.212-11.092Z"/>
    <path fill="#fff" stroke-linejoin="round" d="M-69.6 44.6 483.338 363.84l-5.754 9.966L-75.353 54.567z"/>
  </g>
</svg>
